Simulation
nRows=48
nColumns=15
endheader
time  TH_x TH_y TH_z SC_y  SC_z  SC_x  AC_y  AC_z  AC_x  GH_y  GH_z  GH_yy  EL_x  PS_y
0.0  0.000000  0.000000  0.000000  -30.562987393637634  -0.5828943196493299  67.33602316912238  33.446843364776534  -44.46789875306283  -56.48299247310912  37.988262258368394  -0.6479307331321951  -9.551493941136652  22.94423125857777  0.000000
0.031  0.000000  0.000000  0.000000  -30.545578332532376  -0.46634430609121713  67.44180316138896  33.511955880017574  -44.300337931786004  -56.78281468591614  37.9575724060884  -0.799392775275606  -9.583707496813554  22.889120165569544  0.000000
0.062  0.000000  0.000000  0.000000  -30.47877938191729  -0.45870585048536905  67.60174969927522  33.39934482029776  -44.10038010979132  -57.06955438212877  37.98252056620309  -0.9896635698493621  -9.560702879813574  22.74107105340482  0.000000
0.093  0.000000  0.000000  0.000000  -30.397591578169603  -0.5208855734674324  67.7997206628778  33.15691451172191  -43.92453540825612  -57.34949262465799  38.028589040798096  -1.1382236548717042  -9.517618148034291  22.60716770876708  0.000000
0.124  0.000000  0.000000  0.000000  -30.339950189753147  -0.6398914390733431  68.01433574809265  32.86831070522148  -43.841748354475385  -57.62402503461572  38.0526022445144  -1.16118886689328  -9.498958752135882  22.514628149459483  0.000000
0.155  0.000000  0.000000  0.000000  -30.311503907601494  -0.7680779061523361  68.21318803853117  32.60469396302933  -43.90912401569549  -57.88406009192004  38.014201850900285  -0.9920844445699675  -9.550540282514367  22.439412180052333  0.000000
0.186  0.000000  0.000000  0.000000  -30.334683400002287  -0.8569628499289664  68.36100838209514  32.4171454711241  -44.07527357320022  -58.106506578106945  37.91924699779198  -0.6117564682916559  -9.673098081753709  22.371033777861086  0.000000
0.217  0.000000  0.000000  0.000000  -30.416764683744752  -0.9141882968783772  68.43410112304568  32.30403638107288  -44.21035880733452  -58.26078319064321  37.778472489219176  -0.04600475317765801  -9.847449863036315  22.24473916080103  0.000000
0.248  0.000000  0.000000  0.000000  -30.537096951861358  -0.9761199866489926  68.45167290003052  32.24983293311004  -44.27732377393808  -58.35683187892117  37.56999714267879  0.686924727869108  -10.075873837213368  22.040416763877737  0.000000
0.279  0.000000  0.000000  0.000000  -30.672474359539642  -1.0422092805226637  68.44966509363367  32.238641156200735  -44.308375642406794  -58.41226562340452  37.28838302356808  1.5562419187716574  -10.355222577787327  21.788335893302435  0.000000
0.31  0.000000  0.000000  0.000000  -30.80604965152929  -1.0950360506064407  68.43251977701188  32.26895598907052  -44.32019750988724  -58.42340116048945  36.943808095757284  2.522694020238416  -10.676040708430556  21.54304035315055  0.000000
0.34099999999999997  0.000000  0.000000  0.000000  -30.922704186535693  -1.123768302254979  68.3833113770651  32.35418137147562  -44.319040328796966  -58.36712858047647  36.5497135389568  3.5616125720869523  -11.02587271579274  21.350833733629674  0.000000
0.372  0.000000  0.000000  0.000000  -31.02422486516203  -1.1386019172003679  68.29212915300039  32.507324018851925  -44.29923208019077  -58.21115558187286  36.108356291778264  4.657914751992332  -11.399409560792654  21.229929839547506  0.000000
0.403  0.000000  0.000000  0.000000  -31.12957541859634  -1.1594923738919418  68.1680013163233  32.73191611278375  -44.27187342769043  -57.93116727301443  35.60114514530876  5.809667834029951  -11.804010030711321  21.166727072718306  0.000000
0.434  0.000000  0.000000  0.000000  -31.252129127185025  -1.1960468373446282  68.0370905679387  33.02194544850109  -44.27036533800833  -57.52920935036385  34.99672049358349  7.018453705750964  -12.251166506462274  21.148453900209784  0.000000
0.46499999999999997  0.000000  0.000000  0.000000  -31.38922915307496  -1.2407814992569977  67.92976512123447  33.37031819980928  -44.324514649935814  -57.03507902083766  34.282759439681826  8.28583517414063  -12.724887252120295  21.178174548026373  0.000000
0.496  0.000000  0.000000  0.000000  -31.515682051558436  -1.2757756308399628  67.8560561408895  33.76999454589142  -44.42194937928643  -56.487870433019616  33.47696946194018  9.60903324123652  -13.175431814935793  21.263733819108587  0.000000
0.527  0.000000  0.000000  0.000000  -31.60616506927254  -1.285774456234645  67.80402675319071  34.20817199845976  -44.51215099626249  -55.91406325078725  32.61422277492682  10.981177684908877  -13.544823553411259  21.38476964333772  0.000000
0.558  0.000000  0.000000  0.000000  -31.652444595501304  -1.263988874107959  67.75405070632242  34.67467488493765  -44.551706945856196  -55.326954283956354  31.728316359104653  12.404202893881545  -13.801161346776613  21.504905670535884  0.000000
0.589  0.000000  0.000000  0.000000  -31.660718912582258  -1.2080275175134514  67.69156251371867  35.16560289025348  -44.517198542138814  -54.73043827945922  30.85018614719498  13.882216268564395  -13.946363210951903  21.599512578085495  0.000000
0.62  0.000000  0.000000  0.000000  -31.648299553107613  -1.1171706372201387  67.61347884231388  35.67884089912892  -44.40453696029998  -54.12198860904288  30.00597371879652  15.415816246576318  -14.012058446556793  21.661869419248607  0.000000
0.651  0.000000  0.000000  0.000000  -31.632610453700416  -0.990608602451293  67.52230168659509  36.21308227625768  -44.22407665481627  -53.493595543561746  29.217891626424016  17.006804835184653  -14.041716266900464  21.692413423567462  0.000000
0.6819999999999999  0.000000  0.000000  0.000000  -31.61919715030519  -0.8330611927188482  67.41950678585876  36.76737490963128  -43.99057255701898  -52.83757568476045  28.492370751200045  18.661121145519967  -14.074905352866459  21.69021382768354  0.000000
0.713  0.000000  0.000000  0.000000  -31.60054366846964  -0.6564015965720482  67.30579471728683  37.34109369233055  -43.71745303299474  -52.15376545963285  27.814160563874818  20.38721552143742  -14.132132929819617  21.65639368567802  0.000000
0.744  0.000000  0.000000  0.000000  -31.563155283254115  -0.4738934870930878  67.18448632212736  37.933399792093276  -43.41448134527338  -51.45085534574149  27.157567292578264  22.189012950704768  -14.208504152256099  21.59989473859049  0.000000
0.775  0.000000  0.000000  0.000000  -31.498942583273035  -0.29497799080806514  67.06226969648947  38.54341161055653  -43.08774377444014  -50.73881773852237  26.50476687674617  24.058683333328272  -14.287801989063308  21.53153647383731  0.000000
0.806  0.000000  0.000000  0.000000  -31.411187315366995  -0.1228242820817145  66.94972660898286  39.172581124249106  -42.7421834244196  -50.022275859233865  25.859923216172664  25.972494577614814  -14.362855430202126  21.456715996477932  0.000000
0.837  0.000000  0.000000  0.000000  -31.311909577489367  0.04420554039818275  66.86057021994613  39.823756457514335  -42.382506509117185  -49.30019723240348  25.246544960813594  27.893018236986517  -14.444416762939468  21.372004751524926  0.000000
0.868  0.000000  0.000000  0.000000  -31.213547736659052  0.20831053926566193  66.80809229910402  40.49810050406797  -42.01276333863442  -48.57202435573495  24.69161012208836  29.779382009817244  -14.553404288695527  21.26898864637108  0.000000
0.899  0.000000  0.000000  0.000000  -31.12285001564366  0.3694808676798231  66.80158408268623  41.19123409267973  -41.63585070222181  -47.843652122351116  24.210756008314366  31.598956474056227  -14.70587225936964  21.140373548799055  0.000000
0.9299999999999999  0.000000  0.000000  0.000000  -31.0398169627608  0.5253881824320286  66.8449863222163  41.891931812990414  -41.254310460350446  -47.128821489659906  23.803636226463688  33.33375760716012  -14.90637555991946  20.982551411714546  0.000000
0.961  0.000000  0.000000  0.000000  -30.961433615636047  0.6736227891485351  66.93936068255816  42.584347262376745  -40.86889983658306  -46.446555062596985  23.46342236041565  34.976874709819185  -15.154019838921347  20.794691493133385  0.000000
0.992  0.000000  0.000000  0.000000  -30.886890559837568  0.814633736009566  67.08529210541846  43.25130733458869  -40.47615895353373  -45.81796413652052  23.191075938526442  36.52613015213163  -15.454767230889608  20.577738444569313  0.000000
1.023  0.000000  0.000000  0.000000  -30.8209356283446  0.9533761386952185  67.28388168348887  43.876690951436665  -40.06678680807465  -45.262107021932096  23.002500337579654  37.97975246449103  -15.827456919619788  20.334172781796877  0.000000
1.054  0.000000  0.000000  0.000000  -30.77190322108555  1.0989524933023596  67.5358292817  44.44789787669244  -39.63053781170582  -44.79002779395874  22.918297926750792  39.33849839710954  -16.29616893427133  20.067487777131205  0.000000
1.085  0.000000  0.000000  0.000000  -30.746721263287938  1.2606574379403823  67.84363101261387  44.959277394579175  -39.16518580519438  -44.399535498317974  22.940908698291448  40.609371887559874  -16.866718170210333  19.783141795801946  0.000000
1.116  0.000000  0.000000  0.000000  -30.747527916742545  1.4434014374525115  68.21415018186845  45.41635720253148  -38.68372655021298  -44.073634945726454  23.036318864431106  41.80761470280642  -17.50427645371003  19.490975154551453  0.000000
1.147  0.000000  0.000000  0.000000  -30.773482678785534  1.646079544252781  68.65978282238666  45.83465990055891  -38.21352606090193  -43.785885336374996  23.13934224897371  42.953120462195066  -18.13652555053803  19.206219281881243  0.000000
1.178  0.000000  0.000000  0.000000  -30.82439625093606  1.863294793338762  69.19394603546363  46.2319967623501  -37.78445678393965  -43.51109306407548  23.182570298268168  44.06317437946688  -18.68487393471979  18.945857456455105  0.000000
1.209  0.000000  0.000000  0.000000  -30.904550427292712  2.0907565817414477  69.82233212536975  46.61712679037736  -37.41422547043027  -43.235016454274096  23.130820503614732  45.14685336872424  -19.101588076971968  18.72297789059811  0.000000
1.24  0.000000  0.000000  0.000000  -31.024391780438854  2.331145010922243  70.53565559993824  46.983789494338254  -37.101157121001  -42.9558195827028  22.996330560603678  46.20364502048648  -19.386368257260138  18.543519651854396  0.000000
1.271  0.000000  0.000000  0.000000  -31.195409210541932  2.5915405858945904  71.31154481678428  47.31597909559938  -36.827683172934734  -42.67987009625803  22.82303204752381  47.226548269371435  -19.572097471523133  18.406079739629  0.000000
1.302  0.000000  0.000000  0.000000  -31.420656425074664  2.875509916737325  72.12224768245554  47.599204589795455  -36.56971433472127  -42.41547248439442  22.653434988767344  48.20827829478873  -19.696687005866316  18.303728098794192  0.000000
1.333  0.000000  0.000000  0.000000  -31.688966704397735  3.180609037352823  72.94311026513766  47.82844167692159  -36.30728438341486  -42.16786800123147  22.50346243519375  49.14547836877994  -19.784948055120246  18.226673225953416  0.000000
1.3639999999999999  0.000000  0.000000  0.000000  -31.977446051826757  3.4975512711386894  73.75710379039477  48.00862513512457  -36.02795171578671  -41.938414294940884  22.36167437469628  50.03931366285497  -19.847482768882028  18.164810601586137  0.000000
1.395  0.000000  0.000000  0.000000  -32.26396044960119  3.8153603911225074  74.55286446095887  48.14915429133179  -35.72489695022229  -41.72538356119123  22.211482341892264  50.892227091011115  -19.894614970453482  18.111081662088232  0.000000
1.426  0.000000  0.000000  0.000000  -32.54207612334981  4.1294788502307105  75.32180324667765  48.25791562571503  -35.39414394122762  -41.52194644404631  22.05558410246273  51.70002995891484  -19.949766630113682  18.06389030659176  0.000000
1.457  0.000000  0.000000  0.000000  -32.824429510883334  4.444349105289233  76.05712653007313  48.34001713088933  -35.03245087963606  -41.31503066363616  21.922118102702576  52.44574129150516  -20.046911104851283  18.026559035668352  0.000000
